<svg xmlns="http://www.w3.org/2000/svg" xmlns:xlink="http://www.w3.org/1999/xlink" viewBox="0 0 500 500" width="500" height="500" preserveAspectRatio="xMidYMid meet" style="width: 100%; height: 100%; transform: translate3d(0px, 0px, 0px); content-visibility: visible;"><defs><clipPath id="__lottie_element_16"><rect width="500" height="500" x="0" y="0"/></clipPath><clipPath id="__lottie_element_18"><path d="M0,0 L500,0 L500,500 L0,500z"/></clipPath></defs><g clip-path="url(#__lottie_element_16)"><g clip-path="url(#__lottie_element_18)" transform="matrix(1,0,0,1,0,0)" opacity="1" style="display: block;"><g class="primary design" transform="matrix(1,0,0,1,0,0)" opacity="1" style="display: none;"><g opacity="1" transform="matrix(1,0,0,1,104.16400146484375,291.6650085449219)"><path class="primary" fill="rgb(18,19,49)" fill-opacity="1" d=" M167.83299255371094,0 C167.83299255371094,0 0,0 0,0 C0,0 0.16699999570846558,-187.83299255371094 0.16699999570846558,-187.83299255371094 C0.16699999570846558,-199.33799743652344 -9.152000427246094,-208.66700744628906 -20.66699981689453,-208.66700744628906 C-32.18199920654297,-208.66700744628906 -41.5,-199.33799743652344 -41.5,-187.83299255371094 C-41.5,-187.83299255371094 -41.66699981689453,0 -41.66699981689453,0 C-41.66699981689453,22.969999313354492 -22.969999313354492,41.66699981689453 0,41.66699981689453 C0,41.66699981689453 167.83299255371094,41.66699981689453 167.83299255371094,41.66699981689453 C179.34800720214844,41.66699981689453 188.66700744628906,32.347999572753906 188.66700744628906,20.83300018310547 C188.66700744628906,9.317999839782715 179.34800720214844,0 167.83299255371094,0z"/></g><g opacity="1" transform="matrix(1,0,0,1,104.16400146484375,104.16500091552734)"><path class="primary" fill="rgb(18,19,49)" fill-opacity="1" d=" M164.6199951171875,-41.29800033569336 C164.6199951171875,-41.29800033569336 0,-41.66699981689453 0,-41.66699981689453 C-22.969999313354492,-41.66699981689453 -41.66699981689453,-22.979999542236328 -41.66699981689453,0 C-41.66699981689453,0 -41.2859992980957,187.79400634765625 -41.2859992980957,187.79400634765625 C-41.2859992980957,201.49200439453125 -30.19099998474121,212.5989990234375 -16.481000900268555,212.5989990234375 C-16.058000564575195,212.5989990234375 156.46600341796875,212.92599487304688 157.0330047607422,212.8979949951172 C174.85400390625,212.00799560546875 189.0050048828125,197.28599548339844 189.0050048828125,179.25799560546875 C189.0050048828125,179.25799560546875 132.21600341796875,211.98599243164062 132.21600341796875,211.98599243164062 C132.21600341796875,211.98599243164062 155.03399658203125,212.06399536132812 155.03399658203125,212.06399536132812 C174.22900390625,212.06399536132812 189.76100158691406,196.51499938964844 189.76100158691406,177.33700561523438 C189.76100158691406,175.80999755859375 189.1219940185547,-18.871000289916992 188.98699951171875,-19.915000915527344 C187.4250030517578,-31.97800064086914 177.1199951171875,-41.29800033569336 164.6199951171875,-41.29800033569336z"/></g><g opacity="1" transform="matrix(1,0,0,1,270.83099365234375,104.16500091552734)"><path class="primary" fill="rgb(18,19,49)" fill-opacity="1" d=" M-164.83299255371094,0.3330000042915344 C-164.83299255371094,0.3330000042915344 0,0 0,0 C0,0 0,184.83299255371094 0,184.83299255371094 C0,196.33799743652344 9.317999839782715,205.66700744628906 20.83300018310547,205.66700744628906 C32.347999572753906,205.66700744628906 41.66699981689453,196.33799743652344 41.66699981689453,184.83299255371094 C41.66699981689453,184.83299255371094 41.66699981689453,0 41.66699981689453,0 C41.66699981689453,-22.979999542236328 22.969999313354492,-41.66699981689453 0,-41.66699981689453 C0,-41.66699981689453 -164.83299255371094,-41.33300018310547 -164.83299255371094,-41.33300018310547 C-176.34800720214844,-41.33300018310547 -185.66700744628906,-32.005001068115234 -185.66700744628906,-20.5 C-185.66700744628906,-8.994999885559082 -176.34800720214844,0.3330000042915344 -164.83299255371094,0.3330000042915344z"/></g></g><g class="primary design" transform="matrix(1,0,0,1,0,0)" opacity="1" style="display: block;"><g opacity="1" transform="matrix(1,0,0,1,104.16400146484375,291.6650085449219)"><path class="primary" fill="rgb(18,19,49)" fill-opacity="1" d=" M20.83300018310547,0 C20.83300018310547,0 0,0 0,0 C0,0 0,-20.83300018310547 0,-20.83300018310547 C0,-32.3380012512207 -9.317999839782715,-41.66699981689453 -20.83300018310547,-41.66699981689453 C-32.347999572753906,-41.66699981689453 -41.66699981689453,-32.3380012512207 -41.66699981689453,-20.83300018310547 C-41.66699981689453,-20.83300018310547 -41.66699981689453,0 -41.66699981689453,0 C-41.66699981689453,22.969999313354492 -22.969999313354492,41.66699981689453 0,41.66699981689453 C0,41.66699981689453 20.83300018310547,41.66699981689453 20.83300018310547,41.66699981689453 C32.347999572753906,41.66699981689453 41.66699981689453,32.347999572753906 41.66699981689453,20.83300018310547 C41.66699981689453,9.317999839782715 32.347999572753906,0 20.83300018310547,0z"/></g><g opacity="1" transform="matrix(1,0,0,1,104.16400146484375,104.16500091552734)"><path class="primary" fill="rgb(18,19,49)" fill-opacity="1" d=" M20.83300018310547,-41.66699981689453 C20.83300018310547,-41.66699981689453 0,-41.66699981689453 0,-41.66699981689453 C-22.969999313354492,-41.66699981689453 -41.66699981689453,-22.979999542236328 -41.66699981689453,0 C-41.66699981689453,0 -41.66699981689453,20.83300018310547 -41.66699981689453,20.83300018310547 C-41.66699981689453,32.3380012512207 -32.347999572753906,41.66699981689453 -20.83300018310547,41.66699981689453 C-20.47800064086914,41.66699981689453 -20.125999450683594,41.65800094604492 -19.774999618530273,41.63999938964844 C-8.751999855041504,41.0890007019043 0,31.983999252319336 0,20.83300018310547 C0,20.83300018310547 0,0 0,0 C0,0 20.83300018310547,0 20.83300018310547,0 C32.347999572753906,0 41.66699981689453,-9.32800006866455 41.66699981689453,-20.83300018310547 C41.66699981689453,-21.76099967956543 41.60599899291992,-22.674999237060547 41.487998962402344,-23.570999145507812 C40.14899826049805,-33.78200149536133 31.41900062561035,-41.66699981689453 20.83300018310547,-41.66699981689453z"/></g><g opacity="1" transform="matrix(1,0,0,1,270.83099365234375,104.16500091552734)"><path class="primary" fill="rgb(18,19,49)" fill-opacity="1" d=" M-20.83300018310547,0 C-20.83300018310547,0 0,0 0,0 C0,0 0,20.83300018310547 0,20.83300018310547 C0,32.3380012512207 9.317999839782715,41.66699981689453 20.83300018310547,41.66699981689453 C32.347999572753906,41.66699981689453 41.66699981689453,32.3380012512207 41.66699981689453,20.83300018310547 C41.66699981689453,20.83300018310547 41.66699981689453,0 41.66699981689453,0 C41.66699981689453,-22.979999542236328 22.969999313354492,-41.66699981689453 0,-41.66699981689453 C0,-41.66699981689453 -20.83300018310547,-41.66699981689453 -20.83300018310547,-41.66699981689453 C-32.347999572753906,-41.66699981689453 -41.66699981689453,-32.3380012512207 -41.66699981689453,-20.83300018310547 C-41.66699981689453,-9.32800006866455 -32.347999572753906,0 -20.83300018310547,0z"/></g></g><g class="primary design" transform="matrix(1,0,0,1,0,0)" opacity="1" style="display: block;"><g opacity="1" transform="matrix(1,0,0,1,302.08099365234375,312.49798583984375)"><path class="primary" fill="rgb(18,19,49)" fill-opacity="1" d=" M68.52403259277344,-130.30531311035156 C68.52403259277344,-130.30531311035156 -78.19593811035156,-130.28948974609375 -78.19593811035156,-130.28948974609375 C-101.16593933105469,-130.28948974609375 -119.8619384765625,-111.60248565673828 -119.8619384765625,-88.62248992919922 C-119.8619384765625,-88.62248992919922 -119.86371612548828,78.92948913574219 -119.86371612548828,78.92948913574219 C-119.86371612548828,101.89949035644531 -101.16767120361328,120.59648895263672 -78.19766998291016,120.59648895263672 C-78.19766998291016,120.59648895263672 68.52226257324219,120.5806655883789 68.52226257324219,120.5806655883789 C91.49226379394531,120.5806655883789 110.18830871582031,101.8836669921875 110.18830871582031,78.91366577148438 C110.18830871582031,78.91366577148438 110.19003295898438,-88.6383056640625 110.19003295898438,-88.6383056640625 C110.19003295898438,-111.6183090209961 91.49403381347656,-130.30531311035156 68.52403259277344,-130.30531311035156z"/></g></g><g class="primary design" transform="matrix(1,0,0,1,0,0)" opacity="1" style="display: none;"><g opacity="1" transform="matrix(1,0,0,1,302.08099365234375,312.49798583984375)"><path class="primary" fill="rgb(18,19,49)" fill-opacity="1" d=" M377.5419921875,178.375 C377.5419921875,178.375 231.70799255371094,178.375 231.70799255371094,178.375 C208.73800659179688,178.375 190.04200744628906,197.06199645996094 190.04200744628906,220.04200744628906 C190.04200744628906,220.04200744628906 190.04200744628906,386.7080078125 190.04200744628906,386.7080078125 C190.04200744628906,409.6780090332031 208.73800659179688,428.375 231.70799255371094,428.375 C231.70799255371094,428.375 377.5419921875,428.375 377.5419921875,428.375 C400.5119934082031,428.375 419.2080078125,409.6780090332031 419.2080078125,386.7080078125 C419.2080078125,386.7080078125 419.2080078125,220.04200744628906 419.2080078125,220.04200744628906 C419.2080078125,197.06199645996094 400.5119934082031,178.375 377.5419921875,178.375z"/></g></g><g class="primary design" transform="matrix(1,0,0,1,0,0)" opacity="1" style="display: none;"><g opacity="1" transform="matrix(1,0,0,1,104.16400146484375,291.6650085449219)"><path class="primary" fill="rgb(18,19,49)" fill-opacity="1" d=" M20.83300018310547,0 C20.83300018310547,0 0,0 0,0 C0,0 0,-20.83300018310547 0,-20.83300018310547 C0,-32.3380012512207 -9.317999839782715,-41.66699981689453 -20.83300018310547,-41.66699981689453 C-32.347999572753906,-41.66699981689453 -41.66699981689453,-32.3380012512207 -41.66699981689453,-20.83300018310547 C-41.66699981689453,-20.83300018310547 -41.66699981689453,0 -41.66699981689453,0 C-41.66699981689453,22.969999313354492 -22.969999313354492,41.66699981689453 0,41.66699981689453 C0,41.66699981689453 20.83300018310547,41.66699981689453 20.83300018310547,41.66699981689453 C32.347999572753906,41.66699981689453 41.66699981689453,32.347999572753906 41.66699981689453,20.83300018310547 C41.66699981689453,9.317999839782715 32.347999572753906,0 20.83300018310547,0z"/></g><g opacity="1" transform="matrix(1,0,0,1,104.16400146484375,104.16500091552734)"><path class="primary" fill="rgb(18,19,49)" fill-opacity="1" d=" M20.83300018310547,-41.66699981689453 C20.83300018310547,-41.66699981689453 0,-41.66699981689453 0,-41.66699981689453 C-22.969999313354492,-41.66699981689453 -41.66699981689453,-22.979999542236328 -41.66699981689453,0 C-41.66699981689453,0 -41.66699981689453,20.83300018310547 -41.66699981689453,20.83300018310547 C-41.66699981689453,32.3380012512207 -32.347999572753906,41.66699981689453 -20.83300018310547,41.66699981689453 C-9.317999839782715,41.66699981689453 0,32.3380012512207 0,20.83300018310547 C0,20.83300018310547 0,0 0,0 C0,0 20.83300018310547,0 20.83300018310547,0 C32.347999572753906,0 41.66699981689453,-9.32800006866455 41.66699981689453,-20.83300018310547 C41.66699981689453,-32.3380012512207 32.347999572753906,-41.66699981689453 20.83300018310547,-41.66699981689453z"/></g><g opacity="1" transform="matrix(1,0,0,1,270.83099365234375,104.16500091552734)"><path class="primary" fill="rgb(18,19,49)" fill-opacity="1" d=" M-20.83300018310547,0 C-20.83300018310547,0 0,0 0,0 C0,0 0,20.83300018310547 0,20.83300018310547 C0,32.3380012512207 9.317999839782715,41.66699981689453 20.83300018310547,41.66699981689453 C32.347999572753906,41.66699981689453 41.66699981689453,32.3380012512207 41.66699981689453,20.83300018310547 C41.66699981689453,20.83300018310547 41.66699981689453,0 41.66699981689453,0 C41.66699981689453,-22.979999542236328 22.969999313354492,-41.66699981689453 0,-41.66699981689453 C0,-41.66699981689453 -20.83300018310547,-41.66699981689453 -20.83300018310547,-41.66699981689453 C-32.347999572753906,-41.66699981689453 -41.66699981689453,-32.3380012512207 -41.66699981689453,-20.83300018310547 C-41.66699981689453,-9.32800006866455 -32.347999572753906,0 -20.83300018310547,0z"/></g><g opacity="1" transform="matrix(1,0,0,1,302.08099365234375,312.49798583984375)"><path class="primary" fill="rgb(18,19,49)" fill-opacity="1" d=" M72.91699981689453,-125 C72.91699981689453,-125 -72.91699981689453,-125 -72.91699981689453,-125 C-95.88700103759766,-125 -114.58300018310547,-106.31300354003906 -114.58300018310547,-83.33300018310547 C-114.58300018310547,-83.33300018310547 -114.58300018310547,83.33300018310547 -114.58300018310547,83.33300018310547 C-114.58300018310547,106.3030014038086 -95.88700103759766,125 -72.91699981689453,125 C-72.91699981689453,125 72.91699981689453,125 72.91699981689453,125 C95.88700103759766,125 114.58300018310547,106.3030014038086 114.58300018310547,83.33300018310547 C114.58300018310547,83.33300018310547 114.58300018310547,-83.33300018310547 114.58300018310547,-83.33300018310547 C114.58300018310547,-106.31300354003906 95.88700103759766,-125 72.91699981689453,-125z"/></g></g></g></g></svg>